<?xml version="1.0" encoding="utf-8"?>
<!-- Generator: Adobe Illustrator 28.1.0, SVG Export Plug-In . SVG Version: 6.00 Build 0)  -->
<svg version="1.1" id="Layer_1" xmlns="http://www.w3.org/2000/svg" xmlns:xlink="http://www.w3.org/1999/xlink" x="0px" y="0px"
	 viewBox="0 0 357.9 130.9" style="enable-background:new 0 0 357.9 130.9;" xml:space="preserve">
<style type="text/css">
	.st0{fill:#FFCD00;}
</style>
<rect x="183.5" y="24.7" width="1.4" height="81.1"/>
<g>
	<path class="st0" d="M43.9,40.4h-3.5v24.9h3.5v9h-19v-9h3.5V40.4h-3.5v-9h19V40.4z"/>
	<path class="st0" d="M69.5,74.3H55.7c-5,0-8.3-3.3-8.3-8.6V40.1c0-5.3,3.3-8.6,8.3-8.6h13.8c5,0,8.3,3.3,8.3,8.6v25.6
		C77.7,71,74.4,74.3,69.5,74.3z M65.6,65.3V40.4h-6v24.9L65.6,65.3L65.6,65.3z"/>
	<path class="st0" d="M83.2,40.4h-3v-9h18v9h-3.4L97.9,61l6.4-29.6h9.1l6.9,29.6l2.5-20.6h-3.2v-9h17.8v9h-3L129,74.3h-14.5
		L108.9,49l-5.7,25.3h-14L83.2,40.4z"/>
	<path class="st0" d="M134.2,65.3h3.3l6.5-33.8h19.5l6.4,33.8h3v9h-14.5L157,63.9h-7.2l-1.3,10.4h-14.3L134.2,65.3L134.2,65.3z
		 M156.3,56l-2.8-17.3L150.7,56H156.3z"/>
</g>
<g>
	<polygon points="34.6,89 28.7,89 28.7,82.5 24.9,82.5 24.9,99 28.7,99 28.7,92.2 34.6,92.2 34.6,99 38.5,99 38.5,82.5 34.6,82.5 	
		"/>
	<polygon points="44.9,92.1 51.2,92.1 51.2,89 44.9,89 44.9,85.7 52.3,85.7 52.3,82.5 41.1,82.5 41.1,99 52.3,99 52.3,95.9 
		44.9,95.9 	"/>
	<polygon points="74.2,82.5 70.3,82.5 70.3,99 81.2,99 81.2,95.9 74.2,95.9 	"/>
	<polygon points="79.1,85.7 83.9,85.7 83.9,99 87.8,99 87.8,85.7 92.7,85.7 92.7,82.5 79.1,82.5 	"/>
	<polygon points="104.2,89 98.2,89 98.2,82.5 94.4,82.5 94.4,99 98.2,99 98.2,92.2 104.2,92.2 104.2,99 108,99 108,82.5 104.2,82.5 
			"/>
	<path d="M120.5,86.6c0.5-0.7,1.2-1.1,2.3-1.1c0.9,0,1.6,0.2,2.1,0.6c0.4,0.4,0.7,1.1,0.8,2.1l0,0.2h3.8l0-0.3
		c-0.2-1.9-0.9-3.3-2-4.3c-1.2-1-2.7-1.6-4.6-1.6c-1.4,0-2.6,0.3-3.7,1c-1,0.7-1.9,1.6-2.4,2.8c-0.6,1.2-0.8,2.6-0.8,4.2v1
		c0,2.5,0.6,4.4,1.8,5.9c1.2,1.4,2.9,2.2,5.1,2.2c1.9,0,3.5-0.5,4.7-1.6c1.2-1,1.9-2.5,2-4.3l0-0.3h-3.8l0,0.2
		c-0.1,0.9-0.3,1.6-0.8,2c-0.5,0.4-1.2,0.6-2.1,0.6c-1,0-1.8-0.4-2.3-1.1c-0.5-0.8-0.7-2-0.7-3.7v-1.2
		C119.8,88.5,120,87.3,120.5,86.6z"/>
	<path d="M139.4,82.5h-3.4L129.8,99h4.1l1-3h5.6l1,3h4.1l-6.1-16.4L139.4,82.5z M139.4,92.8h-3.5l1.7-5.4L139.4,92.8z"/>
	<path d="M158.4,90.5c0.5-0.8,0.8-1.7,0.8-2.9c0-1.6-0.6-2.9-1.6-3.8c-1.1-0.9-2.6-1.3-4.6-1.3h-6.2V99h3.8v-5.9h2.2l3,5.9h4.2
		l-3.6-6.9C157.2,91.7,157.9,91.2,158.4,90.5z M150.5,85.7h2.4c0.8,0,1.4,0.2,1.8,0.6c0.4,0.4,0.6,0.9,0.6,1.6
		c0,0.7-0.2,1.2-0.6,1.6c-0.4,0.4-1,0.6-1.8,0.6h-2.4L150.5,85.7L150.5,85.7z"/>
	<polygon points="165.4,95.9 165.4,92.1 171.8,92.1 171.8,89 165.4,89 165.4,85.7 172.9,85.7 172.9,82.5 161.6,82.5 161.6,99 
		172.9,99 172.9,95.9 	"/>
	<path d="M63,82.5h-3.4L53.4,99h4.1l1-3h5.6l1,3h4.1l-6.1-16.4L63,82.5z M63,92.8h-3.5l1.7-5.4L63,92.8z"/>
</g>
<g>
	<path d="M202.3,59.6c0-0.4-0.2-0.8-0.5-1s-0.9-0.5-1.7-0.8s-1.5-0.5-1.9-0.8c-1.3-0.7-1.9-1.6-1.9-2.8c0-0.6,0.2-1.2,0.5-1.6
		s0.8-0.9,1.5-1.1s1.4-0.4,2.2-0.4c0.8,0,1.5,0.1,2.2,0.4s1.1,0.7,1.5,1.2s0.5,1.1,0.5,1.8h-2.3c0-0.5-0.2-0.9-0.5-1.2
		s-0.8-0.4-1.4-0.4c-0.6,0-1,0.1-1.3,0.4s-0.5,0.6-0.5,1c0,0.4,0.2,0.7,0.6,0.9s0.9,0.5,1.6,0.7c1.3,0.4,2.3,0.9,2.9,1.5
		s0.9,1.3,0.9,2.2c0,1-0.4,1.8-1.1,2.3s-1.7,0.8-3,0.8c-0.9,0-1.7-0.2-2.4-0.5s-1.3-0.8-1.6-1.3s-0.6-1.2-0.6-1.9h2.4
		c0,1.3,0.8,1.9,2.2,1.9c0.6,0,1-0.1,1.3-0.3S202.3,60,202.3,59.6z"/>
	<path d="M209.1,52v2.1h1.4v1.7h-1.4V60c0,0.3,0.1,0.5,0.2,0.7s0.3,0.2,0.7,0.2c0.2,0,0.5,0,0.7-0.1v1.7c-0.4,0.1-0.9,0.2-1.4,0.2
		c-1.6,0-2.4-0.8-2.4-2.4v-4.6h-1.2v-1.7h1.2V52H209.1z"/>
	<path d="M215.9,62.7c-1.2,0-2.2-0.4-3-1.1s-1.2-1.8-1.2-3v-0.2c0-0.8,0.2-1.6,0.5-2.3s0.8-1.2,1.4-1.5s1.3-0.5,2.1-0.5
		c1.2,0,2.1,0.4,2.7,1.1s1,1.8,1,3.1v0.9h-5.4c0.1,0.6,0.3,1,0.7,1.3s0.8,0.5,1.4,0.5c0.9,0,1.5-0.3,2-0.9l1.1,1.2
		c-0.3,0.5-0.8,0.9-1.4,1.1C217.2,62.6,216.6,62.7,215.9,62.7z M215.6,55.8c-0.4,0-0.8,0.2-1.1,0.5S214,57,214,57.5h3.1v-0.2
		c0-0.5-0.1-0.9-0.4-1.2C216.4,55.9,216.1,55.8,215.6,55.8z"/>
	<path d="M226,62.5c-0.1-0.2-0.2-0.5-0.2-0.8c-0.5,0.6-1.3,0.9-2.1,0.9c-0.8,0-1.5-0.2-2.1-0.7s-0.8-1.1-0.8-1.8
		c0-0.9,0.3-1.6,1-2.1s1.6-0.7,2.9-0.7h1v-0.5c0-0.4-0.1-0.7-0.3-0.9s-0.5-0.4-0.9-0.4c-0.4,0-0.7,0.1-0.9,0.3s-0.3,0.4-0.3,0.8
		h-2.3c0-0.5,0.2-0.9,0.5-1.4s0.7-0.7,1.3-1s1.2-0.4,1.9-0.4c1,0,1.9,0.3,2.5,0.8s0.9,1.3,0.9,2.2v3.7c0,0.8,0.1,1.4,0.3,1.8v0.1
		L226,62.5L226,62.5L226,62.5z M224.1,61c0.3,0,0.6-0.1,0.9-0.2s0.5-0.3,0.6-0.6v-1.5h-0.8c-1.1,0-1.7,0.4-1.8,1.2l0,0.1
		c0,0.3,0.1,0.5,0.3,0.7S223.8,61,224.1,61z"/>
	<path d="M229.5,58.3c0-1.3,0.3-2.4,0.9-3.1s1.4-1.2,2.4-1.2c0.8,0,1.5,0.3,2,0.9v-4.3h2.3v12h-2l-0.1-0.9c-0.6,0.7-1.3,1.1-2.2,1.1
		c-1,0-1.8-0.4-2.4-1.2S229.5,59.7,229.5,58.3z M231.7,58.4c0,0.8,0.1,1.4,0.4,1.8s0.7,0.6,1.2,0.6c0.7,0,1.2-0.3,1.5-0.9v-3.3
		c-0.3-0.6-0.8-0.9-1.5-0.9C232.3,55.8,231.7,56.7,231.7,58.4z"/>
	<path d="M250,57.9h-4.5v4.6h-2.3V51.2h7.4v1.9h-5.1V56h4.5L250,57.9L250,57.9z"/>
	<path d="M256.3,62.5c-0.1-0.2-0.2-0.5-0.2-0.8c-0.5,0.6-1.3,0.9-2.1,0.9c-0.8,0-1.5-0.2-2.1-0.7s-0.8-1.1-0.8-1.8
		c0-0.9,0.3-1.6,1-2.1s1.6-0.7,2.9-0.7h1v-0.5c0-0.4-0.1-0.7-0.3-0.9s-0.5-0.4-0.9-0.4c-0.4,0-0.7,0.1-0.9,0.3s-0.3,0.4-0.3,0.8
		h-2.3c0-0.5,0.2-0.9,0.5-1.4s0.7-0.7,1.3-1s1.2-0.4,1.9-0.4c1,0,1.9,0.3,2.5,0.8s0.9,1.3,0.9,2.2v3.7c0,0.8,0.1,1.4,0.3,1.8v0.1
		L256.3,62.5L256.3,62.5z M254.4,61c0.3,0,0.6-0.1,0.9-0.2s0.5-0.3,0.6-0.6v-1.5h-0.8c-1.1,0-1.7,0.4-1.8,1.2l0,0.1
		c0,0.3,0.1,0.5,0.3,0.7S254,61,254.4,61z"/>
	<path d="M262.2,54.1l0.1,0.9c0.6-0.7,1.4-1.1,2.4-1.1c1.1,0,1.8,0.4,2.2,1.3c0.6-0.9,1.4-1.3,2.5-1.3c0.9,0,1.6,0.3,2,0.8
		s0.7,1.3,0.7,2.4v5.4h-2.3v-5.4c0-0.5-0.1-0.8-0.3-1.1s-0.5-0.3-1-0.3c-0.7,0-1.1,0.3-1.4,1l0,5.8H265v-5.4c0-0.5-0.1-0.8-0.3-1.1
		s-0.5-0.3-1-0.3c-0.6,0-1.1,0.3-1.4,0.8v6h-2.3v-8.5L262.2,54.1L262.2,54.1L262.2,54.1z"/>
	<path d="M274.1,51.9c0-0.3,0.1-0.6,0.3-0.8s0.5-0.3,0.9-0.3c0.4,0,0.7,0.1,0.9,0.3s0.3,0.5,0.3,0.8c0,0.3-0.1,0.6-0.3,0.8
		s-0.5,0.3-0.9,0.3s-0.7-0.1-0.9-0.3S274.1,52.3,274.1,51.9z M276.5,62.5h-2.3v-8.5h2.3V62.5z"/>
	<path d="M280.8,62.5h-2.3v-12h2.3V62.5z"/>
	<path d="M286.1,59.4l1.6-5.3h2.4l-3.4,9.8l-0.2,0.4c-0.5,1.1-1.3,1.7-2.5,1.7c-0.3,0-0.7,0-1-0.1v-1.7l0.3,0c0.4,0,0.7-0.1,1-0.2
		c0.2-0.1,0.4-0.3,0.5-0.6l0.3-0.7l-3-8.5h2.4L286.1,59.4z"/>
	<path d="M205.3,77.8c-0.1,1.2-0.5,2.2-1.4,2.9s-1.9,1.1-3.2,1.1c-1.5,0-2.6-0.5-3.4-1.5s-1.3-2.3-1.3-4v-0.7c0-1.1,0.2-2.1,0.6-2.9
		s0.9-1.5,1.7-1.9s1.5-0.7,2.5-0.7c1.3,0,2.4,0.4,3.2,1.1s1.3,1.7,1.4,3H203c-0.1-0.7-0.3-1.3-0.6-1.6s-0.9-0.5-1.6-0.5
		c-0.8,0-1.4,0.3-1.8,0.8s-0.6,1.4-0.6,2.6v0.9c0,1.2,0.2,2.1,0.6,2.7s1,0.9,1.8,0.9c0.7,0,1.3-0.2,1.6-0.5s0.6-0.8,0.6-1.5
		L205.3,77.8L205.3,77.8L205.3,77.8z"/>
	<path d="M209.2,74c0.6-0.7,1.4-1.1,2.3-1.1c1.8,0,2.8,1.1,2.8,3.2v5.4H212v-5.4c0-0.5-0.1-0.8-0.3-1.1s-0.6-0.3-1-0.3
		c-0.7,0-1.1,0.3-1.4,0.8v6H207v-12h2.3V74z"/>
	<path d="M216.1,70.9c0-0.3,0.1-0.6,0.3-0.8s0.5-0.3,0.9-0.3c0.4,0,0.7,0.1,0.9,0.3s0.3,0.5,0.3,0.8c0,0.3-0.1,0.6-0.3,0.8
		s-0.5,0.3-0.9,0.3s-0.7-0.1-0.9-0.3S216.1,71.3,216.1,70.9z M218.5,81.5h-2.3v-8.5h2.3V81.5z"/>
	<path d="M222.8,81.5h-2.3v-12h2.3V81.5z"/>
	<path d="M224.6,77.3c0-1.3,0.3-2.4,0.9-3.1s1.4-1.2,2.4-1.2c0.8,0,1.5,0.3,2,0.9v-4.3h2.3v12h-2l-0.1-0.9c-0.6,0.7-1.3,1.1-2.2,1.1
		c-1,0-1.8-0.4-2.4-1.2S224.6,78.7,224.6,77.3z M226.9,77.4c0,0.8,0.1,1.4,0.4,1.8s0.7,0.6,1.2,0.6c0.7,0,1.2-0.3,1.5-0.9v-3.3
		c-0.3-0.6-0.8-0.9-1.5-0.9C227.4,74.8,226.9,75.7,226.9,77.4z"/>
	<path d="M238.9,75.2c-0.3,0-0.6-0.1-0.8-0.1c-0.9,0-1.4,0.3-1.7,0.9v5.5h-2.3v-8.5h2.1l0.1,1c0.5-0.8,1.1-1.2,1.9-1.2
		c0.2,0,0.5,0,0.7,0.1L238.9,75.2z"/>
	<path d="M243.8,81.7c-1.2,0-2.2-0.4-3-1.1s-1.2-1.8-1.2-3v-0.2c0-0.8,0.2-1.6,0.5-2.3s0.8-1.2,1.4-1.5s1.3-0.5,2.1-0.5
		c1.2,0,2.1,0.4,2.7,1.1s1,1.8,1,3.1v0.9h-5.4c0.1,0.6,0.3,1,0.7,1.3s0.8,0.5,1.4,0.5c0.9,0,1.5-0.3,2-0.9l1.1,1.2
		c-0.3,0.5-0.8,0.9-1.4,1.1C245.2,81.6,244.5,81.7,243.8,81.7z M243.6,74.8c-0.4,0-0.8,0.2-1.1,0.5S242,76,242,76.5h3.1v-0.2
		c0-0.5-0.1-0.9-0.4-1.2C244.4,74.9,244.1,74.8,243.6,74.8z"/>
	<path d="M251,73.1l0.1,1c0.6-0.8,1.4-1.1,2.4-1.1c0.9,0,1.6,0.3,2,0.8s0.7,1.3,0.7,2.4v5.5h-2.3v-5.4c0-0.5-0.1-0.8-0.3-1
		c-0.2-0.2-0.6-0.3-1-0.3c-0.6,0-1.1,0.3-1.4,0.8v6h-2.3v-8.5L251,73.1L251,73.1z"/>
	<path d="M258.3,74.6l-1.1-0.6c0.4-0.7,0.7-1.4,0.7-2.2v-1.3h1.8v1.2c0,0.5-0.1,1-0.4,1.5S258.7,74.2,258.3,74.6z"/>
	<path d="M265,79.2c0-0.3-0.1-0.5-0.4-0.7s-0.7-0.3-1.3-0.4c-2-0.4-3-1.3-3-2.6c0-0.8,0.3-1.4,0.9-1.9s1.4-0.8,2.4-0.8
		c1.1,0,1.9,0.3,2.6,0.8s1,1.2,1,2h-2.3c0-0.3-0.1-0.6-0.3-0.8s-0.5-0.3-1-0.3c-0.4,0-0.7,0.1-0.9,0.3s-0.3,0.4-0.3,0.7
		c0,0.2,0.1,0.5,0.4,0.6s0.6,0.3,1.2,0.4s1,0.2,1.4,0.4c1.2,0.4,1.8,1.2,1.8,2.3c0,0.8-0.3,1.4-1,1.9s-1.5,0.7-2.6,0.7
		c-0.7,0-1.3-0.1-1.9-0.4c-0.5-0.3-1-0.6-1.3-1s-0.5-0.9-0.5-1.4h2.1c0,0.4,0.2,0.7,0.4,0.9s0.6,0.3,1.1,0.3c0.4,0,0.8-0.1,1-0.2
		S265,79.5,265,79.2z"/>
	<path d="M282.7,81.5h-2.3v-4.9h-4.6v4.9h-2.3V70.2h2.3v4.6h4.6v-4.6h2.3V81.5z"/>
	<path d="M284.4,77.2c0-0.8,0.2-1.6,0.5-2.2s0.8-1.2,1.4-1.5s1.3-0.5,2.1-0.5c1.1,0,2.1,0.3,2.8,1s1.1,1.6,1.2,2.8l0,0.6
		c0,1.3-0.4,2.3-1.1,3.1s-1.7,1.2-2.9,1.2s-2.2-0.4-2.9-1.2s-1.1-1.8-1.1-3.2V77.2z M286.7,77.4c0,0.8,0.2,1.4,0.5,1.8
		s0.7,0.6,1.3,0.6c0.5,0,1-0.2,1.3-0.6s0.5-1.1,0.5-2c0-0.8-0.2-1.4-0.5-1.8s-0.7-0.6-1.3-0.6c-0.6,0-1,0.2-1.3,0.6
		S286.7,76.5,286.7,77.4z"/>
	<path d="M298.6,79.2c0-0.3-0.1-0.5-0.4-0.7s-0.7-0.3-1.3-0.4c-2-0.4-3-1.3-3-2.6c0-0.8,0.3-1.4,0.9-1.9s1.4-0.8,2.4-0.8
		c1.1,0,1.9,0.3,2.6,0.8s1,1.2,1,2h-2.3c0-0.3-0.1-0.6-0.3-0.8s-0.5-0.3-1-0.3c-0.4,0-0.7,0.1-0.9,0.3s-0.3,0.4-0.3,0.7
		c0,0.2,0.1,0.5,0.4,0.6s0.6,0.3,1.2,0.4s1,0.2,1.4,0.4c1.2,0.4,1.8,1.2,1.8,2.3c0,0.8-0.3,1.4-1,1.9s-1.5,0.7-2.6,0.7
		c-0.7,0-1.3-0.1-1.9-0.4c-0.5-0.3-1-0.6-1.3-1s-0.5-0.9-0.5-1.4h2.1c0,0.4,0.2,0.7,0.4,0.9s0.6,0.3,1.1,0.3c0.4,0,0.8-0.1,1-0.2
		S298.6,79.5,298.6,79.2z"/>
	<path d="M310,77.4c0,1.3-0.3,2.3-0.9,3.1s-1.4,1.2-2.4,1.2c-0.9,0-1.5-0.3-2.1-0.9v4h-2.3V73.1h2.1l0.1,0.8c0.5-0.7,1.3-1,2.1-1
		c1,0,1.9,0.4,2.4,1.2s0.9,1.8,0.9,3.2L310,77.4L310,77.4z M307.8,77.2c0-0.8-0.1-1.4-0.4-1.8s-0.7-0.6-1.2-0.6
		c-0.7,0-1.2,0.3-1.5,0.8V79c0.3,0.6,0.8,0.8,1.5,0.8C307.2,79.9,307.8,79,307.8,77.2z"/>
	<path d="M311.6,70.9c0-0.3,0.1-0.6,0.3-0.8s0.5-0.3,0.9-0.3c0.4,0,0.7,0.1,0.9,0.3s0.3,0.5,0.3,0.8c0,0.3-0.1,0.6-0.3,0.8
		s-0.5,0.3-0.9,0.3s-0.7-0.1-0.9-0.3S311.6,71.3,311.6,70.9z M314,81.5h-2.3v-8.5h2.3V81.5z"/>
	<path d="M318.9,71v2.1h1.4v1.7h-1.4V79c0,0.3,0.1,0.5,0.2,0.7s0.3,0.2,0.7,0.2c0.2,0,0.5,0,0.7-0.1v1.7c-0.4,0.1-0.9,0.2-1.4,0.2
		c-1.6,0-2.4-0.8-2.4-2.4v-4.6h-1.2v-1.7h1.2V71H318.9z"/>
	<path d="M326.9,81.5c-0.1-0.2-0.2-0.5-0.2-0.8c-0.5,0.6-1.3,0.9-2.1,0.9c-0.8,0-1.5-0.2-2.1-0.7s-0.8-1.1-0.8-1.8
		c0-0.9,0.3-1.6,1-2.1s1.6-0.7,2.9-0.7h1v-0.5c0-0.4-0.1-0.7-0.3-0.9s-0.5-0.4-0.9-0.4c-0.4,0-0.7,0.1-0.9,0.3s-0.3,0.4-0.3,0.8
		h-2.3c0-0.5,0.2-0.9,0.5-1.4s0.7-0.7,1.3-1s1.2-0.4,1.9-0.4c1,0,1.9,0.3,2.5,0.8s0.9,1.3,0.9,2.2v3.7c0,0.8,0.1,1.4,0.3,1.8v0.1
		L326.9,81.5L326.9,81.5L326.9,81.5z M325,80c0.3,0,0.6-0.1,0.9-0.2s0.5-0.3,0.6-0.6v-1.5h-0.8c-1.1,0-1.7,0.4-1.8,1.2l0,0.1
		c0,0.3,0.1,0.5,0.3,0.7S324.7,80,325,80z"/>
	<path d="M333,81.5h-2.3v-12h2.3V81.5z"/>
</g>
</svg>
